<?xml version="1.0" encoding="UTF-8" standalone="no"?>
<!DOCTYPE svg PUBLIC "-//W3C//DTD SVG 1.1//EN" "http://www.w3.org/Graphics/SVG/1.1/DTD/svg11.dtd">
<svg width="100%" height="100%" viewBox="0 0 512 512" version="1.1" xmlns="http://www.w3.org/2000/svg" xmlns:xlink="http://www.w3.org/1999/xlink" xml:space="preserve" xmlns:serif="http://www.serif.com/" style="fill-rule:evenodd;clip-rule:evenodd;stroke-linejoin:round;stroke-miterlimit:2;">
    <g transform="matrix(5.31014,0,0,5.31014,-142.327,-142.256)">
        <path d="M120,76.1C120,73 119.7,69.8 119.2,66.8L75.9,66.8L75.9,84.5L100.7,84.5C99.7,90.2 96.4,95.2 91.5,98.4L106.3,109.9C115,101.8 120,90 120,76.1Z" style="fill:rgb(66,128,239);fill-rule:nonzero;"/>
        <path d="M75.9,120.9C88.3,120.9 98.7,116.8 106.3,109.8L91.5,98.4C87.4,101.2 82.1,102.8 75.9,102.8C63.9,102.8 53.8,94.7 50.1,83.9L34.9,95.6C42.7,111.1 58.5,120.9 75.9,120.9Z" style="fill:rgb(52,163,83);fill-rule:nonzero;"/>
        <path d="M50.1,83.8C48.2,78.1 48.2,71.9 50.1,66.2L34.9,54.4C28.4,67.4 28.4,82.7 34.9,95.6L50.1,83.8Z" style="fill:rgb(246,183,4);fill-rule:nonzero;"/>
        <path d="M75.9,47.3C82.4,47.2 88.8,49.7 93.5,54.2L106.6,41C98.3,33.2 87.3,29 75.9,29.1C58.5,29.1 42.7,38.9 34.9,54.4L50.1,66.2C53.8,55.3 63.9,47.3 75.9,47.3Z" style="fill:rgb(229,67,53);fill-rule:nonzero;"/>
    </g>
</svg>
