<?xml version="1.0" encoding="UTF-8" standalone="no"?>
<!DOCTYPE svg PUBLIC "-//W3C//DTD SVG 1.1//EN" "http://www.w3.org/Graphics/SVG/1.1/DTD/svg11.dtd">
<svg width="100%" height="100%" viewBox="0 0 1015 1015" version="1.1" xmlns="http://www.w3.org/2000/svg" xmlns:xlink="http://www.w3.org/1999/xlink" xml:space="preserve" xmlns:serif="http://www.serif.com/" style="fill-rule:evenodd;clip-rule:evenodd;stroke-linejoin:round;stroke-miterlimit:2;">
    <g transform="matrix(3.67484,0,0,11.1772,-889.361,-2378.75)">
        <path d="M446.789,302.049L294.462,302.049L294.462,289.528L256.38,289.528L256.38,264.487L294.462,264.487L294.462,251.967L408.707,251.967L408.707,214.405L446.789,214.405L446.789,302.049ZM294.462,289.528L408.707,289.528L408.707,264.487L294.462,264.487L294.462,289.528Z" style="fill-rule:nonzero;"/>
    </g>
    <g transform="matrix(-0.0178448,-2.39631,1.1715,-0.00872397,636.301,1388.73)">
        <g>
            <g>
                <path d="M208.76,286.466L208.76,224.143L216.378,224.143L216.378,286.466L208.76,286.466ZM216.378,302.047L216.378,286.466L239.229,286.466L239.229,224.143L216.378,224.143L216.378,208.562L239.229,208.562L239.229,161.819L246.846,161.819L246.846,302.047L216.378,302.047Z" style="fill-rule:nonzero;"/>
                <path d="M262.081,302.047L262.081,286.466L277.315,286.466L277.315,302.047L262.081,302.047ZM254.463,286.466L254.463,208.562L262.081,208.562L262.081,286.466L254.463,286.466ZM284.932,302.047L284.932,286.466L277.315,286.466L277.315,270.885L284.932,270.885L284.932,208.562L292.549,208.562L292.549,302.047L284.932,302.047Z" style="fill-rule:nonzero;"/>
                <path d="M330.635,302.047L330.635,224.143L338.252,224.143L338.252,302.047L330.635,302.047ZM300.167,302.047L300.167,208.562L330.635,208.562L330.635,224.143L323.018,224.143L323.018,302.047L315.401,302.047L315.401,224.143L307.784,224.143L307.784,302.047L300.167,302.047Z" style="fill-rule:nonzero;"/>
                <path d="M353.487,302.047L353.487,286.466L368.721,286.466L368.721,302.047L353.487,302.047ZM345.87,286.466L345.87,224.143L353.487,224.143L353.487,286.466L345.87,286.466ZM376.338,302.047L376.338,286.466L368.721,286.466L368.721,270.885L376.338,270.885L376.338,224.143L353.487,224.143L353.487,208.562L383.955,208.562L383.955,302.047L376.338,302.047Z" style="fill-rule:nonzero;"/>
                <path d="M422.041,302.047L422.041,224.143L429.658,224.143L429.658,302.047L422.041,302.047ZM391.573,302.047L391.573,208.562L422.041,208.562L422.041,224.143L399.19,224.143L399.19,302.047L391.573,302.047Z" style="fill-rule:nonzero;"/>
                <path d="M456.318,302.047L456.318,286.466L463.936,286.466L463.936,177.4L456.318,177.4L456.318,161.819L479.17,161.819L479.17,177.4L471.553,177.4L471.553,286.466L479.17,286.466L479.17,302.047L456.318,302.047Z" style="fill-rule:nonzero;"/>
                <path d="M517.256,286.466L517.256,177.4L524.873,177.4L524.873,286.466L517.256,286.466ZM486.787,302.047L486.787,161.819L517.256,161.819L517.256,177.4L494.404,177.4L494.404,286.466L517.256,286.466L517.256,302.047L486.787,302.047Z" style="fill-rule:nonzero;"/>
            </g>
        </g>
    </g>
</svg>
