<?xml version="1.0" encoding="UTF-8" standalone="no"?>
<!DOCTYPE svg PUBLIC "-//W3C//DTD SVG 1.1//EN" "http://www.w3.org/Graphics/SVG/1.1/DTD/svg11.dtd">
<svg width="100%" height="100%" viewBox="0 0 512 512" version="1.1" xmlns="http://www.w3.org/2000/svg" xmlns:xlink="http://www.w3.org/1999/xlink" xml:space="preserve" xmlns:serif="http://www.serif.com/" style="fill-rule:evenodd;clip-rule:evenodd;stroke-linejoin:round;stroke-miterlimit:2;">
    <g transform="matrix(6.60559,0,0,6.53084,-153.214,-130.309)">
        <path d="M98.267,40.216L98.267,77.326C98.267,87.526 90.08,95.807 79.995,95.807L43.45,95.807C33.365,95.807 25.178,87.526 25.178,77.326L25.178,40.216C25.178,30.016 33.365,21.734 43.45,21.734L79.995,21.734C90.08,21.734 98.267,30.016 98.267,40.216Z" style="fill:rgb(1,1,1);"/>
    </g>
    <g>
        <g transform="matrix(6.25967,0,0,6.25967,-155.245,-130.103)">
            <circle cx="45.63" cy="60.519" r="6.63" style="fill:white;"/>
        </g>
        <g transform="matrix(6.25967,0,0,6.25967,-155.245,-130.103)">
            <circle cx="65.519" cy="60.519" r="6.63" style="fill:white;"/>
        </g>
        <g transform="matrix(6.25967,0,0,6.25967,-155.245,-130.103)">
            <circle cx="45.63" cy="80.408" r="6.63" style="fill:white;fill-opacity:0.2;"/>
        </g>
        <g transform="matrix(6.25967,0,0,6.25967,-155.245,-130.103)">
            <circle cx="85.408" cy="80.408" r="6.63" style="fill:white;fill-opacity:0.2;"/>
        </g>
        <g transform="matrix(6.25967,0,0,6.25967,-155.245,-130.103)">
            <circle cx="65.519" cy="80.408" r="6.63" style="fill:white;"/>
        </g>
        <g transform="matrix(6.25967,0,0,6.25967,-155.245,-130.103)">
            <circle cx="85.408" cy="60.519" r="6.63" style="fill:white;"/>
        </g>
        <g transform="matrix(6.25967,0,0,6.25967,-155.245,-130.103)">
            <circle cx="45.63" cy="40.63" r="6.63" style="fill:white;fill-opacity:0.2;"/>
        </g>
        <g transform="matrix(6.25967,0,0,6.25967,-155.245,-130.103)">
            <circle cx="65.519" cy="40.63" r="6.63" style="fill:white;fill-opacity:0.2;"/>
        </g>
        <g transform="matrix(6.25967,0,0,6.25967,-155.245,-130.103)">
            <circle cx="85.408" cy="40.63" r="6.63" style="fill:white;fill-opacity:0.2;"/>
        </g>
    </g>
</svg>
