<?xml version="1.0" encoding="UTF-8"?>
<!-- Generated by Pixelmator Pro 3.6.17 -->
<svg width="800" height="800" viewBox="0 0 800 800" xmlns="http://www.w3.org/2000/svg">
    <path id="Rectangle" fill="#373636" fill-rule="evenodd" stroke="#1060a7" stroke-width="5" stroke-linecap="round" stroke-linejoin="round" d="M 0 800 L 800 800 L 800 0 L 0 0 Z"/>
    <g id="Group">
        <path id="Path" fill="#919191" stroke="#dddddd" stroke-width="8.336" d="M 133.376007 666.880005 C 120.024223 664.84491 108.063004 657.496521 100.212814 646.506287 C 92.362617 635.515991 89.290794 621.818115 91.695999 608.528015 L 241.744003 408.463989 C 246.756256 397.360596 255.648605 388.468231 266.752014 383.455994 L 533.504028 383.455994 C 544.607361 388.468231 553.499756 397.360596 558.512024 408.463989 L 708.559998 608.528015 C 710.965149 621.818115 707.893372 635.515991 700.043213 646.506287 C 692.192993 657.496521 680.23175 664.84491 666.880005 666.880005 Z"/>
        <linearGradient id="linearGradient1" x1="283.424" y1="391.792" x2="691.888" y2="391.792" gradientUnits="userSpaceOnUse">
            <stop offset="1e-05" stop-color="#fafafa" stop-opacity="1"/>
            <stop offset="1" stop-color="#646464" stop-opacity="1"/>
        </linearGradient>
        <path id="path1" fill="url(#linearGradient1)" stroke="none" d="M 108.367996 591.856018 L 258.415985 391.791992 L 541.840027 391.791992 L 691.888 591.856018 Z"/>
        <path id="path2" fill="#e91e63" stroke="none" d="M 671.047974 646.039978 C 671.047974 652.945801 665.449768 658.544006 658.544006 658.544006 C 651.638184 658.544006 646.039978 652.945801 646.039978 646.039978 C 646.039978 639.134216 651.638184 633.536011 658.544006 633.536011 C 665.449768 633.536011 671.047974 639.134216 671.047974 646.039978 Z"/>
        <path id="path3" fill="#aaaaaa" stroke="none" d="M 375.119995 425.135986 L 350.112 558.511963 L 325.104004 558.511963 L 400.127991 583.52002 L 475.152008 558.511963 L 450.144012 558.511963 L 425.135986 425.135986 Z"/>
        <linearGradient id="linearGradient2" x1="323.4368" y1="225.072" x2="591.856" y2="225.072" gradientUnits="userSpaceOnUse">
            <stop offset="1e-05" stop-color="#ff9696" stop-opacity="1"/>
            <stop offset="1" stop-color="#ff2828" stop-opacity="1"/>
        </linearGradient>
        <path id="path4" fill="url(#linearGradient2)" stroke="#ff0000" stroke-width="8.336" d="M 241.744003 225.072021 C 223.328613 225.072021 208.399994 240.00061 208.399994 258.416016 C 208.399994 276.831421 223.328613 291.76001 241.744003 291.76001 L 558.512024 291.76001 C 576.927368 291.76001 591.856018 276.831421 591.856018 258.416016 C 591.856018 240.00061 576.927368 225.072021 558.512024 225.072021 Z"/>
        <linearGradient id="linearGradient3" x1="386.7904" y1="225.072" x2="433.472" y2="225.072" gradientUnits="userSpaceOnUse">
            <stop offset="1e-05" stop-color="#fafafa" stop-opacity="1"/>
            <stop offset="1" stop-color="#646464" stop-opacity="1"/>
        </linearGradient>
        <path id="path5" fill="url(#linearGradient3)" stroke="#444444" stroke-width="8.336" d="M 366.783997 525.167969 L 433.471985 525.167969 L 433.471985 225.072021 L 366.783997 225.072021 Z"/>
    </g>
</svg>
