<?xml version="1.0" encoding="UTF-8"?>
<!-- Generated by Pixelmator Pro 3.6.17 -->
<svg width="800" height="800" viewBox="0 0 800 800" xmlns="http://www.w3.org/2000/svg">
    <path id="Rectangle" fill="#9791ab" fill-rule="evenodd" stroke="#1060a7" stroke-width="5" stroke-linecap="round" stroke-linejoin="round" d="M 0 800 L 800 800 L 800 0 L 0 0 Z"/>
    <g id="Group">
        <path id="Path" fill="#919191" stroke="#dddddd" stroke-width="8.336" d="M 133.376007 621.880005 C 120.024223 619.84491 108.063004 612.496521 100.212814 601.506287 C 92.362617 590.515991 89.290794 576.818115 91.695999 563.528015 L 241.744003 363.463989 C 246.756256 352.360596 255.648605 343.468231 266.752014 338.455994 L 533.504028 338.455994 C 544.607361 343.468231 553.499756 352.360596 558.512024 363.463989 L 708.559998 563.528015 C 710.965149 576.818115 707.893372 590.515991 700.043213 601.506287 C 692.192993 612.496521 680.23175 619.84491 666.880005 621.880005 Z"/>
        <linearGradient id="linearGradient1" x1="283.424" y1="346.792" x2="691.888" y2="346.792" gradientUnits="userSpaceOnUse">
            <stop offset="1e-05" stop-color="#fafafa" stop-opacity="1"/>
            <stop offset="1" stop-color="#646464" stop-opacity="1"/>
        </linearGradient>
        <path id="path1" fill="url(#linearGradient1)" stroke="none" d="M 108.367996 546.856018 L 258.415985 346.791992 L 541.840027 346.791992 L 691.888 546.856018 Z"/>
        <path id="path2" fill="#e91e63" stroke="none" d="M 671.047974 601.039978 C 671.047974 607.945801 665.449768 613.544006 658.544006 613.544006 C 651.638184 613.544006 646.039978 607.945801 646.039978 601.039978 C 646.039978 594.134216 651.638184 588.536011 658.544006 588.536011 C 665.449768 588.536011 671.047974 594.134216 671.047974 601.039978 Z"/>
        <path id="path3" fill="#aaaaaa" stroke="none" d="M 375.119995 380.135986 L 350.112 513.511963 L 325.104004 513.511963 L 400.127991 538.52002 L 475.152008 513.511963 L 450.144012 513.511963 L 425.135986 380.135986 Z"/>
        <linearGradient id="linearGradient2" x1="323.4368" y1="180.072" x2="591.856" y2="180.072" gradientUnits="userSpaceOnUse">
            <stop offset="1e-05" stop-color="#ff9696" stop-opacity="1"/>
            <stop offset="1" stop-color="#ff2828" stop-opacity="1"/>
        </linearGradient>
        <path id="path4" fill="url(#linearGradient2)" stroke="#ff0000" stroke-width="8.336" d="M 241.744003 180.072021 C 223.328613 180.072021 208.399994 195.00061 208.399994 213.416016 C 208.399994 231.831421 223.328613 246.76001 241.744003 246.76001 L 558.512024 246.76001 C 576.927368 246.76001 591.856018 231.831421 591.856018 213.416016 C 591.856018 195.00061 576.927368 180.072021 558.512024 180.072021 Z"/>
        <linearGradient id="linearGradient3" x1="386.7904" y1="180.072" x2="433.472" y2="180.072" gradientUnits="userSpaceOnUse">
            <stop offset="1e-05" stop-color="#fafafa" stop-opacity="1"/>
            <stop offset="1" stop-color="#646464" stop-opacity="1"/>
        </linearGradient>
        <path id="path5" fill="url(#linearGradient3)" stroke="#444444" stroke-width="8.336" d="M 366.783997 480.167999 L 433.471985 480.167999 L 433.471985 180.072021 L 366.783997 180.072021 Z"/>
    </g>
</svg>
